<?xml version="1.0" encoding="utf-8"?>
<!-- Generator: Adobe Illustrator 22.0.1, SVG Export Plug-In . SVG Version: 6.00 Build 0)  -->
<svg version="1.1" id="efc_x5F_L7CK_x5F_St_x5F_PS_x5F_RGB"
	 xmlns="http://www.w3.org/2000/svg" xmlns:xlink="http://www.w3.org/1999/xlink" x="0px" y="0px" viewBox="0 0 510.2 68"
	 style="enable-background:new 0 0 510.2 68;" xml:space="preserve">
<style type="text/css">
	.st0{fill:#FFFFFF;}
</style>
<g>
	<path class="st0" d="M32.3,47.5l-0.8,1.8c-1.2,2.8-4.8,5.8-9.9,5.8c-1.8,0-3.5-0.4-5-1.1c-5.3-2.6-5.9-9-5.9-11.7
		c0-0.3,0-0.5,0-0.8h25.1v-2c0-4.6-2.2-10.4-7.2-12.9c-2-1-4.4-1.5-7-1.5c-2.5,0-4.8,0.5-6.9,1.5C9.2,29.3,6.1,35,6.1,42.4
		c0,7.4,3.1,13.1,8.5,15.7c2.1,1,4.4,1.5,6.9,1.5c7.2,0,12.2-4.2,14.1-8.4l0.8-1.8L32.3,47.5z M16.5,30.7c1.5-0.7,3.2-1.1,5-1.1
		c2,0,3.5,0.3,4.8,1c2.6,1.3,4.1,4.2,4.6,6.6H11.3C12,35,13.5,32.2,16.5,30.7z"/>
	<path class="st0" d="M105.8,59v-4.4h5V34.4c0-1.8-0.5-3-1.6-3.8c-0.9-0.7-2.4-1-4.5-1c-5,0-7.9,2-10.9,5v20h5V59H84v-4.4h5.3V30.2
		h-5.4v-4.4h9.9v3c3.2-2.4,6.7-3.5,10.9-3.5c3,0,5.3,0.6,7.1,1.8c1.6,1.1,3.5,3.3,3.5,7.4v20.2h5.3V59H105.8z"/>
	<path class="st0" d="M207.1,59.6c-3,0-5.5-0.9-7-1.6c-5.4-2.6-8.6-8.4-8.6-15.6c0-7.2,3.3-13.1,8.8-15.6c2.2-1,4.7-1.5,7.1-1.5
		c8.1,0,13.2,3.7,13.2,9.5c0,1.4-0.3,2.5-0.9,3.6l-0.9,1.6l-4.1-1.8l0.9-1.9c0.2-0.3,0.4-0.9,0.4-1.6c0-4.6-6.1-5.1-8.7-5.1
		c-1.8,0-3.7,0.4-5.2,1.2c-5.7,2.7-6.2,9.6-6.2,11.6c0,2.6,0.6,9,6,11.6c1.6,0.8,3.2,1.1,5,1.1c6.4,0,9-4.5,9.9-6.5l0.8-1.8l4.1,1.8
		l-0.8,1.8C220.1,52.6,216.4,59.6,207.1,59.6z"/>
	<path class="st0" d="M313.1,59.6c-3,0-5.5-0.9-7-1.6c-5.4-2.6-8.6-8.4-8.6-15.6c0-7.2,3.3-13.1,8.8-15.6c2.1-1,4.7-1.5,7.1-1.5
		c8.1,0,13.2,3.7,13.2,9.5c0,1.4-0.3,2.5-0.9,3.6l-0.9,1.6l-4.1-1.8l0.9-1.9c0.2-0.3,0.4-0.9,0.4-1.6c0-4.6-6.1-5.1-8.7-5.1
		c-1.8,0-3.7,0.4-5.2,1.2c-5.7,2.7-6.2,9.6-6.2,11.6c0,2.6,0.6,9,6.1,11.6c1.7,0.8,3.3,1.1,5,1.1c6.4,0,9-4.5,9.9-6.5l0.8-1.8
		l4.1,1.8l-0.8,1.8C326.1,52.6,322.4,59.6,313.1,59.6z"/>
	<path class="st0" d="M363.3,59v-4.4h5.3V30.2h-5.4v-4.4h9.9v2.8c2.6-2.2,5.1-3.3,7.9-3.3c6,0,6.6,4,6.6,5.8c0,1.6-0.5,3.2-1.5,4.4
		l-1.1,1.4l-3.7-2.4l1.3-1.7c0.2-0.2,0.5-0.9,0.5-1.7c0-0.8,0-1.4-2.1-1.4c-3,0-5.6,2.6-7.9,5.4v19.6h5.7V59H363.3z"/>
	<path class="st0" d="M404.6,59.6c-2.5,0-4.8-0.5-6.9-1.5c-5.4-2.6-8.5-8.3-8.5-15.7c0-7.3,3.1-13.1,8.5-15.7c2.2-1,4.5-1.5,6.9-1.5
		c2.6,0,5,0.5,7,1.5c5,2.5,7.2,8.3,7.2,12.9v2h-25.1c0,0.2,0,0.5,0,0.8c0,2.7,0.6,9.1,5.9,11.7c1.5,0.7,3.2,1.1,5,1.1
		c5.1,0,8.8-3,10-5.8l0.8-1.8l4.1,1.8l-0.8,1.8C416.8,55.3,411.8,59.6,404.6,59.6z M414,37.2c-0.5-2.4-2-5.3-4.6-6.6
		c-1.3-0.7-2.8-1-4.8-1c-1.8,0-3.5,0.4-5,1.1c-3.1,1.5-4.5,4.2-5.2,6.4H414z"/>
	<path class="st0" d="M437.8,59.6c-2.5,0-4.8-0.5-6.9-1.5c-5.4-2.6-8.5-8.3-8.5-15.7c0-7.3,3.1-13.1,8.5-15.7c2.2-1,4.5-1.5,6.9-1.5
		c2.6,0,5,0.5,7,1.5c5,2.5,7.2,8.3,7.2,12.9v2h-25.1c0,0.2,0,0.5,0,0.8c0,2.7,0.6,9.1,5.9,11.7c1.5,0.7,3.2,1.1,5,1.1
		c5.1,0,8.7-3,9.9-5.8l0.8-1.8l4.1,1.8l-0.8,1.8C450.1,55.3,445.1,59.6,437.8,59.6z M447.2,37.2c-0.5-2.4-2-5.3-4.6-6.6
		c-1.3-0.7-2.8-1-4.8-1c-1.8,0-3.5,0.4-5,1.1c-3.1,1.5-4.5,4.2-5.2,6.4H447.2z"/>
	<path class="st0" d="M492.1,59.6c-2.6,0-5.2-0.8-7.3-2.4V59h-4.5V46.2h4.3l0.1,1.9c0.4,5.6,4.8,7.1,7.4,7.1c3.8,0,6.3-2.1,6.3-5.4
		c0-2.8-1.4-4.4-4.9-5.3c-0.6-0.2-1.8-0.4-2.8-0.6l-0.2,0c-0.5-0.1-0.9-0.2-1.2-0.2c-3.6-0.7-8.4-2.5-8.4-9.2c0-5.2,4.2-9.1,9.9-9.1
		c2.5,0,4.4,0.6,6,1.8v-2h4.5v13.7h-4.2l-0.2-1.7c-0.3-2.6-1.1-4.8-2.1-5.8c-1.1-1.2-2.8-1.5-4-1.5c-2.7,0-5.4,1.6-5.4,4.7
		c0,2.4,0.8,4,4.9,4.8c0.3,0.1,0.7,0.1,1.1,0.2c1.2,0.2,2.5,0.5,3.2,0.7c5.4,1.4,8.2,4.7,8.2,9.6C502.9,55.5,498.4,59.6,492.1,59.6z
		"/>
	<path class="st0" d="M176.6,59v-4.4h5V34.4c0-1.8-0.5-3-1.6-3.8c-0.9-0.7-2.4-1-4.5-1c-5,0-7.9,2-10.9,5v20h5V59h-14.8v-4.4h5.3
		V30.2h-5.4v-4.4h9.9v3c3.2-2.4,6.7-3.5,10.9-3.5c3,0,5.3,0.6,7,1.8c1.6,1.1,3.6,3.3,3.6,7.4v20.2h5.3V59H176.6z"/>
	<path class="st0" d="M231.6,18.1c-1.5,0-2.6-1.2-2.6-2.6c0-1.4,1.2-2.6,2.6-2.6c1.5,0,2.6,1.2,2.6,2.6
		C234.2,16.9,233,18.1,231.6,18.1z"/>
	<polygon class="st0" points="224.3,59 224.3,54.6 229.6,54.6 229.6,30.2 224.1,30.2 224.1,25.7 234.1,25.7 234.1,54.6 239.4,54.6 
		239.4,59 	"/>
	<path class="st0" d="M454,59v-4.4h5.3V30.2h-5.4v-4.4h9.9v2.8c2.6-2.2,5.1-3.3,7.9-3.3c5.9,0,6.6,4,6.6,5.8c0,1.6-0.5,3.2-1.5,4.4
		l-1.1,1.4l-3.7-2.4l1.3-1.7c0.2-0.2,0.5-0.9,0.5-1.7c0-0.8,0-1.4-2.1-1.4c-3.1,0-5.6,2.6-7.9,5.4v19.6h5.7V59H454z"/>
	<polygon class="st0" points="65.7,59 65.7,54.6 71,54.6 71,30.2 65.6,30.2 65.6,25.7 75.5,25.7 75.5,54.6 80.9,54.6 80.9,59 	"/>
	<polygon class="st0" points="65.7,59 65.7,54.6 71,54.6 71,30.2 65.6,30.2 65.6,25.7 75.5,25.7 75.5,54.6 80.9,54.6 80.9,59 	"/>
	<path class="st0" d="M52.6,30.2h9.8l0-4.4h-9.8l0-4c0-2,0.4-8.8,6.1-11.5c1.5-0.7,3.4-1.2,5.2-1.2c2.6,0,8.6,0.5,8.6,5.1h0h0
		c0,0.2-0.1,0.4-0.1,0.4l0,0c0,0-0.4,0-0.4,0c-1.7,0.1-3,1.6-3,3.2c0,1.8,1.5,3.3,3.3,3.3c0.9,0,1.7-0.4,2.3-1
		c1.7-1.7,2.2-4.2,2.2-4.2l0,0c0.1-0.5,0.2-1.1,0.2-1.7c0-5.9-5-9.5-13.1-9.5c-2.4,0-4.9,0.5-7.1,1.5c-5.5,2.5-8.7,8.3-8.7,15.5l0,4
		h-5.8l0,4.4h5.9v24.5h-5.3V59h15.4v-4.4h-5.7V30.2z"/>
	<path class="st0" d="M268.3,55.1c-1.4,0-2-0.2-2-2.2V33.3c0-3.7-1.5-6-4.7-7.2c-1.6-0.6-3.3-0.8-5.5-0.8c-6,0-12,2.8-12,9
		c0,2.1,0.8,3.5,1.5,4.4l1.1,1.4l3.6-2.4l-1.3-1.7c0-0.1-0.5-0.7-0.5-1.7c0-3.6,4.7-4.6,7.5-4.6c1.6,0,2.8,0.2,3.9,0.6
		c1.2,0.4,1.8,1.1,1.8,3v6.5c-3.3,0.2-7.3,0.5-9.5,0.8c-6.3,0.9-10,4.6-10,10.2c0,4.4,3.4,8.8,9.8,8.8c4.3,0,7.9-1.8,10.2-3.5
		c0.9,2.3,3,3.5,5.9,3.5c1.8,0,3.5-0.8,4.9-2.3l-3.1-3.2C269.3,55,268.7,55.1,268.3,55.1z M261.8,50.8c-2.2,2-5.6,4.3-9.6,4.3
		c-3.9,0-5.3-2.4-5.3-4.4c0-3.3,2.1-5.2,6.1-5.8c1.7-0.3,5.6-0.5,8.8-0.7V50.8z"/>
	<path class="st0" d="M356.7,55.1c-1.4,0-2-0.2-2-2.2V33.3c0-3.7-1.5-6-4.7-7.2c-1.6-0.6-3.3-0.8-5.5-0.8c-6,0-12,2.8-12,9
		c0,2.1,0.8,3.5,1.5,4.4l1.1,1.4l3.6-2.4l-1.3-1.7c0-0.1-0.5-0.7-0.5-1.7c0-3.6,4.7-4.6,7.5-4.6c1.7,0,2.8,0.2,3.9,0.6
		c1.2,0.4,1.8,1.1,1.8,3v6.5c-3.2,0.2-7.4,0.5-9.5,0.8c-6.3,0.9-10,4.6-10,10.2c0,4.4,3.4,8.8,9.8,8.8c4.4,0,7.9-1.8,10.2-3.5
		c0.9,2.3,3,3.5,5.9,3.5c1.8,0,3.5-0.8,4.9-2.3l-3.1-3.2C357.7,55,357.1,55.1,356.7,55.1z M350.3,50.8c-2.2,2-5.6,4.3-9.6,4.3
		c-3.9,0-5.3-2.4-5.3-4.4c0-3.3,2.1-5.2,6.1-5.8c1.7-0.3,5.6-0.5,8.8-0.7V50.8z"/>
	<path class="st0" d="M275.3,59v-4.4h5.3V9.1c-0.3,0-0.7,0-1,0h-4.4V4.7h4c1.3,0,2.9-0.1,3.2-0.2l0.2-0.1h2.5v50.2h5.5V59H275.3z"/>
	<path class="st0" d="M148.2,55.1c-1.4,0-2-0.2-2-2.2V33.3c0-3.7-1.5-6-4.7-7.2c-1.5-0.6-3.3-0.8-5.5-0.8c-6,0-12,2.8-12,9
		c0,2.1,0.8,3.5,1.5,4.4l1.1,1.4l3.6-2.4l-1.3-1.7c-0.1-0.1-0.5-0.7-0.5-1.7c0-3.6,4.7-4.6,7.5-4.6c1.7,0,2.8,0.2,3.9,0.6
		c1.2,0.4,1.8,1.1,1.8,3v6.5c-3.2,0.2-7.3,0.5-9.5,0.8c-6.3,0.9-10,4.6-10,10.2c0,4.4,3.4,8.8,9.8,8.8c4.4,0,7.9-1.8,10.2-3.5
		c0.9,2.3,3,3.5,5.9,3.5c1.9,0,3.5-0.8,4.9-2.3l-3.1-3.2C149.3,55,148.7,55.1,148.2,55.1z M141.8,50.8c-2.2,2-5.5,4.3-9.6,4.3
		c-3.9,0-5.3-2.4-5.3-4.4c0-3.3,2.1-5.2,6.1-5.8c1.7-0.3,5.6-0.5,8.8-0.7V50.8z"/>
</g>
</svg>
