<?xml version="1.0" encoding="utf-8"?>
<!-- Generator: Adobe Illustrator 22.0.1, SVG Export Plug-In . SVG Version: 6.00 Build 0)  -->
<svg version="1.1" id="Siegel" xmlns="http://www.w3.org/2000/svg" xmlns:xlink="http://www.w3.org/1999/xlink" x="0px" y="0px"
	 viewBox="0 0 283.5 319" style="enable-background:new 0 0 283.5 319;" xml:space="preserve">
<style type="text/css">
	.st0{fill:#FFFFFF;stroke:#B71923;stroke-width:1.3033;stroke-miterlimit:10;}
	.st1{fill:#B71923;}
	.st2{fill:#A4191C;}
	.st3{fill-rule:evenodd;clip-rule:evenodd;}
	.st4{fill:#FFFFFF;}
</style>
<rect x="48.6" y="27.6" class="st0" width="184.3" height="263.6"/>
<g>
	<g>
		<path d="M158,279c-0.1-0.6-0.4-0.9-0.9-0.9c-0.4,0-0.7,0.2-0.7,0.6c0,1.2,2.9,1.6,2.9,3.8c0,1.3-0.9,2-2.2,2
			c-1.4,0-2.1-0.8-2.4-2.1l1.4-0.4c0.1,0.6,0.3,1.2,1,1.2c0.4,0,0.7-0.2,0.7-0.6c0-1.3-2.9-1.8-2.9-3.8c0-1.2,0.9-2,2.1-2
			c1.2,0,2,0.8,2.3,2L158,279z"/>
		<path d="M159.9,278.2v-1.3h0.9v-2h1.5v2h1v1.3h-1v4.3c0,0.4,0.2,0.6,0.5,0.6h0.5v1.3c-0.2,0.1-0.4,0.1-0.8,0.1
			c-1.2,0-1.8-0.5-1.8-1.7v-4.6H159.9z"/>
		<path d="M164.2,279.1c0.1-1.5,1-2.3,2.5-2.3c1.4,0,2.2,0.7,2.2,2v4.8c0,0.2,0.1,0.5,0.1,0.8h-1.5c0-0.2-0.1-0.4-0.1-0.6
			c-0.6,0.5-1.1,0.7-1.8,0.7c-1,0-1.6-0.7-1.6-1.7c0-1.6,1.1-2.5,3.3-3.4V279c0-0.6-0.2-1-0.8-1c-0.7,0-0.9,0.4-0.9,1H164.2z
			 M167.4,280.6c-1.4,0.8-1.8,1.3-1.8,2c0,0.5,0.2,0.7,0.7,0.7c0.4,0,0.8-0.3,1-0.7V280.6z"/>
		<path d="M169.9,278.2v-1.3h0.9v-2h1.5v2h1v1.3h-1v4.3c0,0.4,0.2,0.6,0.5,0.6h0.5v1.3c-0.2,0.1-0.4,0.1-0.8,0.1
			c-1.2,0-1.8-0.5-1.8-1.7v-4.6H169.9z"/>
		<path d="M174.3,276.3v-1.4h1.5v1.4H174.3z M174.3,284.3v-7.4h1.5v7.4H174.3z"/>
		<path d="M180.2,279c-0.1-0.6-0.4-0.9-0.9-0.9c-0.4,0-0.7,0.2-0.7,0.6c0,1.2,2.9,1.6,2.9,3.8c0,1.3-0.9,2-2.2,2
			c-1.4,0-2.1-0.8-2.4-2.1l1.4-0.4c0.1,0.6,0.3,1.2,1,1.2c0.4,0,0.7-0.2,0.7-0.6c0-1.3-2.9-1.8-2.9-3.8c0-1.2,0.9-2,2.1-2
			c1.2,0,2,0.8,2.3,2L180.2,279z"/>
		<path d="M182.1,278.2v-1.3h0.9v-2h1.5v2h1v1.3h-1v4.3c0,0.4,0.2,0.6,0.5,0.6h0.5v1.3c-0.2,0.1-0.4,0.1-0.8,0.1
			c-1.2,0-1.8-0.5-1.8-1.7v-4.6H182.1z"/>
		<path d="M186.4,279.1c0.1-1.5,1-2.3,2.5-2.3c1.4,0,2.2,0.7,2.2,2v4.8c0,0.2,0.1,0.5,0.1,0.8h-1.5c0-0.2-0.1-0.4-0.1-0.6
			c-0.6,0.5-1.1,0.7-1.8,0.7c-1,0-1.6-0.7-1.6-1.7c0-1.6,1.1-2.5,3.3-3.4V279c0-0.6-0.2-1-0.8-1c-0.7,0-0.9,0.4-0.9,1H186.4z
			 M189.6,280.6c-1.4,0.8-1.8,1.3-1.8,2c0,0.5,0.2,0.7,0.7,0.7c0.4,0,0.8-0.3,1-0.7V280.6z"/>
	</g>
	<path d="M203.4,274.9h-8.9c-0.2,0-0.3,0.2-0.3,0.3v6.1c0,0,0,0,0,0c0,0,1.4,0,2.1-0.4c0.8-0.4,1.3-1.2,1.3-1.2
		c0.1-0.2,0.3-0.4,0.4-0.5c0.1-0.1,0.1-0.1,0.1-0.2c0,0,0.1-0.1,0.1-0.2c0,0,0.2-0.3,0.3-0.5c0,0,0.9-1.3,2.1-1.9
		c1.3-0.7,3.1-0.6,3.1-0.6c0,0,0,0,0,0v-0.7C203.7,275,203.6,274.9,203.4,274.9z M201.6,278.4c-0.8,0.4-1.3,1.2-1.3,1.2
		c-0.1,0.2-0.3,0.4-0.4,0.5c-0.1,0.1-0.1,0.1-0.1,0.2c0,0-0.1,0.1-0.1,0.2c0,0.1-0.2,0.3-0.3,0.5c0,0-0.9,1.3-2.1,1.9
		c-1.3,0.7-3,0.6-3.1,0.6v0.7c0,0.2,0.2,0.3,0.3,0.3h8.9c0.2,0,0.3-0.2,0.3-0.3v-6.1c0,0-0.1,0-0.1,0
		C203.6,278.1,202.2,278.1,201.6,278.4z"/>
</g>
<g>
	<path d="M78,284.4c-0.1,0-0.2-0.1-0.2-0.2v-5.8c0-0.1,0.1-0.2,0.2-0.2h2.5c0.1,0,0.2,0.1,0.2,0.2v0.5c0,0.1-0.1,0.2-0.2,0.2h-1.8
		v1.8h1.5c0.1,0,0.2,0.1,0.2,0.2v0.5c0,0.1-0.1,0.2-0.2,0.2h-1.5v1.9h1.9c0.1,0,0.2,0.1,0.2,0.2v0.5c0,0.1-0.1,0.2-0.2,0.2H78z"/>
	<path d="M83.3,280c0.7,0,1.2,0.4,1.2,1.2v3c0,0.1-0.1,0.2-0.2,0.2h-0.5c-0.1,0-0.2-0.1-0.2-0.2v-2.9c0-0.3-0.2-0.5-0.5-0.5h-0.2
		c-0.3,0-0.5,0.2-0.5,0.5v2.9c0,0.1-0.1,0.2-0.2,0.2h-0.5c-0.1,0-0.2-0.1-0.2-0.2v-4c0-0.1,0.1-0.2,0.2-0.2h0.5
		c0.1,0,0.2,0.1,0.2,0.2v0.1c0.2-0.2,0.5-0.4,0.8-0.4H83.3z"/>
	<path d="M89.9,283.2c0,0.8-0.6,1.2-1.3,1.2h-0.4c-0.8,0-1.3-0.4-1.3-1.2v-1.9c0-0.8,0.6-1.2,1.3-1.2h0.4c0.7,0,1.3,0.4,1.3,1.2v0.3
		c0,0.1-0.1,0.2-0.2,0.2h-0.5c-0.1,0-0.2-0.1-0.2-0.2v-0.2c0-0.3-0.2-0.5-0.5-0.5h-0.3c-0.3,0-0.5,0.2-0.5,0.5v1.7
		c0,0.3,0.2,0.5,0.5,0.5h0.3c0.3,0,0.5-0.2,0.5-0.5v-0.3c0-0.1,0.1-0.2,0.2-0.2h0.5c0.1,0,0.2,0.1,0.2,0.2V283.2z"/>
	<path d="M91.8,284.4c-0.7,0-1.2-0.5-1.2-1.2v-1.9c0-0.7,0.5-1.2,1.2-1.2h0.7c0.7,0,1.2,0.5,1.2,1.2v1.9c0,0.7-0.5,1.2-1.2,1.2H91.8
		z M92.7,281.3c0-0.3-0.2-0.5-0.5-0.5H92c-0.3,0-0.5,0.2-0.5,0.5v1.7c0,0.3,0.2,0.5,0.5,0.5h0.3c0.3,0,0.5-0.2,0.5-0.5V281.3z"/>
	<path d="M95.4,284.2c0,0.1-0.1,0.2-0.2,0.2h-0.5c-0.1,0-0.2-0.1-0.2-0.2v-5.8c0-0.1,0.1-0.2,0.2-0.2h0.5c0.1,0,0.2,0.1,0.2,0.2
		V284.2z"/>
	<path d="M97.2,284.2c0,0.1-0.1,0.2-0.2,0.2h-0.5c-0.1,0-0.2-0.1-0.2-0.2v-5.8c0-0.1,0.1-0.2,0.2-0.2H97c0.1,0,0.2,0.1,0.2,0.2
		V284.2z"/>
	<path d="M101.1,284.2c0,0.1-0.1,0.2-0.2,0.2h-0.5c-0.1,0-0.2-0.1-0.2-0.2V284c-0.2,0.2-0.4,0.3-0.8,0.3h-0.2
		c-0.7,0-1.1-0.4-1.1-1.2v-0.2c0-0.7,0.4-1.2,1.2-1.2h1v-0.6c0-0.3-0.2-0.5-0.5-0.5h-0.2c-0.3,0-0.5,0.2-0.5,0.5v0.1
		c0,0.1-0.1,0.2-0.2,0.2h-0.5c-0.1,0-0.2-0.1-0.2-0.2v-0.1c0-0.8,0.6-1.2,1.3-1.2h0.4c0.7,0,1.3,0.5,1.3,1.2V284.2z M99.7,283.7
		c0.3,0,0.5-0.2,0.5-0.5v-0.5h-0.8c-0.3,0-0.5,0.2-0.5,0.5v0.1c0,0.3,0.1,0.5,0.5,0.5H99.7z"/>
	<path d="M102.8,280.4c0.2-0.2,0.5-0.4,0.9-0.4h0.1c0.8,0,1.2,0.6,1.2,1.4v1.7c0,0.8-0.5,1.2-1.2,1.2h-0.1c-0.4,0-0.7-0.1-0.9-0.3
		v0.1c0,0.1-0.1,0.2-0.2,0.2h-0.5c-0.1,0-0.2-0.1-0.2-0.2v-5.8c0-0.1,0.1-0.2,0.2-0.2h0.5c0.1,0,0.2,0.1,0.2,0.2V280.4z
		 M103.3,283.6h0.3c0.3,0,0.5-0.2,0.5-0.6v-1.7c0-0.3-0.2-0.5-0.5-0.5h-0.3c-0.3,0-0.5,0.2-0.5,0.5v1.7
		C102.8,283.4,103,283.6,103.3,283.6z"/>
	<path d="M107,284.4c-0.7,0-1.2-0.5-1.2-1.2v-1.9c0-0.7,0.5-1.2,1.2-1.2h0.7c0.7,0,1.2,0.5,1.2,1.2v1.9c0,0.7-0.5,1.2-1.2,1.2H107z
		 M107.9,281.3c0-0.3-0.2-0.5-0.5-0.5h-0.3c-0.3,0-0.5,0.2-0.5,0.5v1.7c0,0.3,0.2,0.5,0.5,0.5h0.3c0.3,0,0.5-0.2,0.5-0.5V281.3z"/>
	<path d="M111.3,280.9c-0.6,0-0.8,0.3-0.8,0.8v2.4c0,0.1-0.1,0.2-0.2,0.2h-0.5c-0.1,0-0.2-0.1-0.2-0.2v-4c0-0.1,0.1-0.2,0.2-0.2h0.5
		c0.1,0,0.2,0.1,0.2,0.2v0.3c0.2-0.4,0.5-0.5,0.9-0.5h0.2c0.1,0,0.2,0.1,0.2,0.2v0.5c0,0.1-0.1,0.2-0.2,0.2H111.3z"/>
	<path d="M115.4,284.2c0,0.1-0.1,0.2-0.2,0.2h-0.5c-0.1,0-0.2-0.1-0.2-0.2V284c-0.2,0.2-0.4,0.3-0.8,0.3h-0.2
		c-0.7,0-1.1-0.4-1.1-1.2v-0.2c0-0.7,0.4-1.2,1.2-1.2h1v-0.6c0-0.3-0.2-0.5-0.5-0.5h-0.2c-0.3,0-0.5,0.2-0.5,0.5v0.1
		c0,0.1-0.1,0.2-0.2,0.2h-0.5c-0.1,0-0.2-0.1-0.2-0.2v-0.1c0-0.8,0.6-1.2,1.3-1.2h0.4c0.7,0,1.3,0.5,1.3,1.2V284.2z M114,283.7
		c0.3,0,0.5-0.2,0.5-0.5v-0.5h-0.8c-0.3,0-0.5,0.2-0.5,0.5v0.1c0,0.3,0.1,0.5,0.5,0.5H114z"/>
	<path d="M117.5,280.8v2.5c0,0.2,0.1,0.3,0.3,0.3c0.3,0,0.4-0.1,0.5-0.1c0.1,0,0.1,0.1,0.1,0.2v0.3c0,0.2-0.1,0.3-0.8,0.3
		c-0.7,0-1.1-0.4-1.1-1v-2.6h-0.5c-0.1,0-0.2-0.1-0.2-0.2v-0.4c0-0.1,0.1-0.2,0.2-0.2h0.5v-1.1c0-0.1,0.1-0.2,0.2-0.2h0.5
		c0.1,0,0.2,0.1,0.2,0.2v1.1h0.8c0.1,0,0.2,0.1,0.2,0.2v0.4c0,0.1-0.1,0.2-0.2,0.2H117.5z"/>
	<path d="M120,279.2c0,0.2-0.1,0.2-0.3,0.2h-0.4c-0.2,0-0.3,0-0.3-0.2v-0.7c0-0.2,0.1-0.2,0.3-0.2h0.4c0.1,0,0.3,0,0.3,0.2V279.2z
		 M120,284.2c0,0.1-0.1,0.2-0.2,0.2h-0.5c-0.1,0-0.2-0.1-0.2-0.2v-4c0-0.1,0.1-0.2,0.2-0.2h0.5c0.1,0,0.2,0.1,0.2,0.2V284.2z"/>
	<path d="M122,284.4c-0.7,0-1.2-0.5-1.2-1.2v-1.9c0-0.7,0.5-1.2,1.2-1.2h0.7c0.7,0,1.2,0.5,1.2,1.2v1.9c0,0.7-0.5,1.2-1.2,1.2H122z
		 M123,281.3c0-0.3-0.2-0.5-0.5-0.5h-0.3c-0.3,0-0.5,0.2-0.5,0.5v1.7c0,0.3,0.2,0.5,0.5,0.5h0.3c0.3,0,0.5-0.2,0.5-0.5V281.3z"/>
	<path d="M126.5,280c0.7,0,1.2,0.4,1.2,1.2v3c0,0.1-0.1,0.2-0.2,0.2H127c-0.1,0-0.2-0.1-0.2-0.2v-2.9c0-0.3-0.2-0.5-0.5-0.5h-0.2
		c-0.3,0-0.5,0.2-0.5,0.5v2.9c0,0.1-0.1,0.2-0.2,0.2h-0.5c-0.1,0-0.2-0.1-0.2-0.2v-4c0-0.1,0.1-0.2,0.2-0.2h0.5
		c0.1,0,0.2,0.1,0.2,0.2v0.1c0.2-0.2,0.5-0.4,0.8-0.4H126.5z"/>
	<path d="M133,284.2c0,0.1-0.1,0.2-0.2,0.2h-0.5c-0.1,0-0.2-0.1-0.2-0.2V284c-0.2,0.2-0.4,0.3-0.8,0.3h-0.2c-0.7,0-1.1-0.4-1.1-1.2
		v-0.2c0-0.7,0.4-1.2,1.2-1.2h1v-0.6c0-0.3-0.2-0.5-0.5-0.5h-0.2c-0.3,0-0.5,0.2-0.5,0.5v0.1c0,0.1-0.1,0.2-0.2,0.2h-0.5
		c-0.1,0-0.2-0.1-0.2-0.2v-0.1c0-0.8,0.6-1.2,1.3-1.2h0.4c0.7,0,1.3,0.5,1.3,1.2V284.2z M131.6,283.7c0.3,0,0.5-0.2,0.5-0.5v-0.5
		h-0.8c-0.3,0-0.5,0.2-0.5,0.5v0.1c0,0.3,0.1,0.5,0.5,0.5H131.6z"/>
	<path d="M135.2,283.3C135.2,283.4,135.2,283.4,135.2,283.3c0.1,0.1,0.1,0,0.1,0l0.7-3.1c0-0.1,0.1-0.2,0.2-0.2h0.5
		c0.2,0,0.2,0.1,0.2,0.2c0,0,0,0.1,0,0.2l-1,3.8c0,0.1-0.1,0.2-0.2,0.2h-0.9c-0.1,0-0.2-0.1-0.2-0.2l-0.9-3.8c0-0.1,0-0.1,0-0.2
		c0-0.1,0.1-0.2,0.2-0.2h0.5c0.1,0,0.2,0.1,0.2,0.2C134.8,281.2,135,282.3,135.2,283.3z"/>
	<path d="M139.6,283c0-0.1,0.1-0.2,0.2-0.2h0.5c0.1,0,0.2,0.1,0.2,0.2v0.1c0,0.8-0.6,1.2-1.4,1.2h-0.3c-0.8,0-1.3-0.4-1.3-1.2v-1.9
		c0-0.7,0.5-1.2,1.2-1.2h0.7c0.7,0,1.2,0.5,1.2,1.2v0.9c0,0.1-0.1,0.2-0.2,0.2h-2v0.7c0,0.3,0.2,0.5,0.5,0.5h0.3
		C139.4,283.6,139.6,283.4,139.6,283L139.6,283z M138.3,281.6h1.3v-0.3c0-0.3-0.2-0.5-0.5-0.5h-0.3c-0.3,0-0.5,0.2-0.5,0.5V281.6z"
		/>
	<path d="M144.3,283.2c0,0.8-0.6,1.2-1.3,1.2h-0.4c-0.8,0-1.3-0.4-1.3-1.2v-1.9c0-0.8,0.6-1.2,1.3-1.2h0.4c0.7,0,1.3,0.4,1.3,1.2
		v0.3c0,0.1-0.1,0.2-0.2,0.2h-0.5c-0.1,0-0.2-0.1-0.2-0.2v-0.2c0-0.3-0.2-0.5-0.5-0.5h-0.3c-0.3,0-0.5,0.2-0.5,0.5v1.7
		c0,0.3,0.2,0.5,0.5,0.5h0.3c0.3,0,0.5-0.2,0.5-0.5v-0.3c0-0.1,0.1-0.2,0.2-0.2h0.5c0.1,0,0.2,0.1,0.2,0.2V283.2z"/>
</g>
<g>
	<rect x="26.7" y="108.4" class="st1" width="228.1" height="62.4"/>
	<polygon class="st2" points="48,184.7 48,170.7 26.7,170.8 	"/>
	<polygon class="st2" points="233.5,184.8 233.5,170.8 254.8,170.8 	"/>
</g>
<g id="Logo_x5F_LesEchos_9_">
	<path class="st3" d="M75.6,59.5v17.4c0,1.6,0.5,2.4,2.6,2.4h2.5c2.9,0,4.2-1.1,5.2-3.2l0.9-2l1.5,0.4l-1.1,6.7l-20.5,0v-1.5
		c3.6-0.8,3.8-0.9,3.8-2.3v-18c0-1.5-0.2-1.5-3.8-2.3v-1.5l12.8,0v1.5C75.7,57.9,75.6,58,75.6,59.5L75.6,59.5z M104.2,67.2
		c0,2.3-1.3,5-10.2,5.5c0.2,3.6,2.1,6,5.2,6c1.7,0,3.3-0.7,4.7-2l0.8,1c-1.6,2.4-4.2,4-7.3,4c-4.9,0-8.5-3.6-8.5-9.1
		c0-5.4,4.4-9.6,9.5-9.6C102.6,62.8,104.2,65.4,104.2,67.2L104.2,67.2z M98.1,64.4c-2.8,0-4,3-4.1,6.8c6.1-0.9,6.3-3.3,6.3-4.6
		C100.3,65,99,64.4,98.1,64.4L98.1,64.4z M111.9,81.6c-4.4,0-6.1-1.8-6.1-3.6c0-1.4,1.4-2.7,3.2-2.3l0.5,0.6c-1.1,2-0.3,3.8,2.6,3.8
		c1.8,0,3.1-1,3.1-2.5c0-1.8-1.5-2.5-3.8-3.4c-3.3-1.3-5.2-2.8-5.2-5.8c0-2.9,2.6-5.5,6.5-5.5c4.2,0,6.1,2,6.1,3.7
		c0,1.4-1.2,2.7-3.4,2.3l-0.4-0.6c1.3-1.8,0.6-3.8-2.2-3.8c-1.7,0-2.9,1.1-2.9,2.5c0,1.7,1.8,2.5,3.9,3.2c3.2,1.1,5.9,2.6,5.9,5.9
		C119.8,79.3,117.4,81.6,111.9,81.6L111.9,81.6z M123.6,55.8l20.4,0l0.2,6.7h-1.4l-0.7-2.1c-0.7-2.1-2.2-2.8-4.3-2.8l-5.3,0v9.5h5.2
		c1.1,0,1.2-0.2,2-3.5h1.5v9.2h-1.5c-0.8-3.2-0.8-3.6-2-3.6h-5.2l0,7.8c0,1.6,0.5,2.4,2.6,2.4h2.5c2.9,0,4.2-1.1,5.2-3.2l0.9-2
		l1.5,0.4l-1.1,6.7l-20.5,0v-1.5c3.6-0.8,3.8-0.9,3.8-2.3v-18c0-1.5-0.2-1.5-3.8-2.3V55.8L123.6,55.8z M161,76.6l0.8,1
		c-1.6,2.4-4.2,4-7.3,4c-4.9,0-8.5-3.6-8.5-9.1c0-5.4,4-9.6,9.2-9.6c4.1,0,5.9,2.2,5.9,4c0,1.5-0.9,2.9-3.6,2.5l-0.4-0.7
		c0.7-1.7,1-4.3-1.9-4.3c-2.9,0-4.1,3.4-4.1,7.5c0,4.1,1.9,6.8,5.2,6.8C158,78.6,159.6,77.9,161,76.6L161,76.6z M174.4,79.1v-9.9
		c0-2.1-0.8-3-2.3-3c-2.3,0-4.2,3.6-4.2,9v5.9l-4.8,0l0-23.8c0-1.4-0.1-1.5-2.4-2.3v-1.5l7.5,0c-0.2,1.5-0.2,13.5-0.2,14.3h0.1
		c1.2-3,3.4-5.1,6.5-5.1c2.8,0,4.7,1.9,4.7,5.5l0,8.9c0,1.7,0.3,1.8,2.8,2.4v1.5c-2.2,0.2-3.9,0.4-5,0.4
		C175.3,81.6,174.4,80.8,174.4,79.1L174.4,79.1z M190.7,80.1c3.2,0,4.1-3.7,4.1-7.6c0-4.2-0.6-8.1-4.1-8.1c-3.2,0-4.1,3.7-4.1,7.6
		C186.6,76.1,187.3,80.1,190.7,80.1L190.7,80.1z M190.3,81.6c-5.2,0-8.8-3.4-8.8-8.8c0-6,3.8-9.9,9.6-9.9c5.2,0,8.8,3.4,8.8,8.8
		C199.9,77.6,196.2,81.6,190.3,81.6L190.3,81.6z M206.9,81.6c-4.4,0-6.1-1.8-6.1-3.6c0-1.4,1.4-2.7,3.2-2.3l0.5,0.6
		c-1.1,2-0.3,3.8,2.6,3.8c1.8,0,3.1-1,3.1-2.5c0-1.8-1.5-2.5-3.8-3.4c-3.2-1.3-5.2-2.8-5.2-5.8c0-2.9,2.6-5.5,6.5-5.5
		c4.2,0,6.1,2,6.1,3.7c0,1.4-1.2,2.7-3.4,2.3l-0.4-0.6c1.3-1.8,0.6-3.8-2.2-3.8c-1.7,0-2.9,1.1-2.9,2.5c0,1.7,1.8,2.5,3.9,3.2
		c3.2,1.1,5.9,2.6,5.9,5.9C214.8,79.3,212.4,81.6,206.9,81.6L206.9,81.6z"/>
</g>
<g>
	<path class="st4" d="M90.9,122c0-0.3,0.2-0.5,0.5-0.5h1.1c0.3,0,0.5,0.2,0.5,0.5v11.6h3.9c0.3,0,0.5,0.2,0.5,0.5v1
		c0,0.2-0.2,0.4-0.5,0.4h-5.5c-0.2,0-0.5-0.2-0.5-0.4V122z"/>
	<path class="st4" d="M99.2,135.5c-0.2,0-0.5-0.2-0.5-0.5v-13.1c0-0.2,0.2-0.4,0.5-0.4h5.7c0.3,0,0.5,0.2,0.5,0.4v1
		c0,0.3-0.2,0.5-0.5,0.5h-4.1v4h3.4c0.3,0,0.5,0.2,0.5,0.5v1c0,0.2-0.2,0.4-0.5,0.4h-3.4v4.2h4.2c0.3,0,0.5,0.2,0.5,0.4v1
		c0,0.3-0.2,0.5-0.5,0.5H99.2z"/>
	<path class="st4" d="M109.7,135.5c-1.7,0-3.1-0.9-3.1-2.8v-1.8c0-0.3,0.2-0.5,0.5-0.5h1.1c0.2,0,0.5,0.2,0.5,0.5v1.4
		c0,0.8,0.5,1.3,1.2,1.3h0.7c0.8,0,1.1-0.5,1.1-1.3v-0.8c0-1.1-0.6-1.5-1.2-1.9l-2.5-1.5c-0.8-0.5-1.3-1.2-1.3-2.5v-1.4
		c0-1.8,1.4-2.8,3.1-2.8h1c1.7,0,3.1,1,3.1,2.8v1.6c0,0.3-0.2,0.5-0.5,0.5h-1.1c-0.2,0-0.5-0.2-0.5-0.5v-1.2c0-0.8-0.4-1.3-1.2-1.3
		h-0.6c-0.8,0-1.1,0.5-1.1,1.3v0.6c0,0.7,0.2,1,0.9,1.4l2.3,1.4c1.2,0.7,1.8,1.5,1.8,2.9v1.8c0,1.7-1.2,2.8-2.8,2.8H109.7z"/>
	<path class="st4" d="M122.2,129.8l-1.2-3.6v8.9c0,0.3-0.2,0.5-0.5,0.5h-1.1c-0.3,0-0.5-0.2-0.5-0.5v-13.1c0-0.2,0.2-0.4,0.5-0.4
		h1.4c0.3,0,0.5,0.2,0.5,0.4l1.7,5.5l1.7-5.5c0.1-0.2,0.2-0.4,0.5-0.4h1.4c0.2,0,0.5,0.2,0.5,0.4v13.1c0,0.3-0.2,0.5-0.5,0.5h-1.1
		c-0.3,0-0.5-0.2-0.5-0.5v-8.9l-1.2,3.6c-0.1,0.4-0.3,0.5-0.6,0.5h-0.6C122.5,130.2,122.3,130.1,122.2,129.8z"/>
	<path class="st4" d="M129.8,135.5c-0.2,0-0.5-0.2-0.5-0.5v-13.1c0-0.2,0.2-0.4,0.5-0.4h5.7c0.3,0,0.5,0.2,0.5,0.4v1
		c0,0.3-0.2,0.5-0.5,0.5h-4.1v4h3.4c0.3,0,0.5,0.2,0.5,0.5v1c0,0.2-0.2,0.4-0.5,0.4h-3.4v4.2h4.2c0.3,0,0.5,0.2,0.5,0.4v1
		c0,0.3-0.2,0.5-0.5,0.5H129.8z"/>
	<path class="st4" d="M139.6,135.1c0,0.3-0.2,0.5-0.5,0.5h-1.1c-0.3,0-0.5-0.2-0.5-0.5V122c0-0.3,0.2-0.5,0.5-0.5h1.1
		c0.3,0,0.5,0.2,0.5,0.5V135.1z"/>
	<path class="st4" d="M141.7,122c0-0.3,0.2-0.5,0.5-0.5h1.1c0.3,0,0.5,0.2,0.5,0.5v11.6h3.9c0.3,0,0.5,0.2,0.5,0.5v1
		c0,0.2-0.2,0.4-0.5,0.4h-5.5c-0.2,0-0.5-0.2-0.5-0.4V122z"/>
	<path class="st4" d="M149.6,122c0-0.3,0.2-0.5,0.5-0.5h1.1c0.3,0,0.5,0.2,0.5,0.5v11.6h3.9c0.3,0,0.5,0.2,0.5,0.5v1
		c0,0.2-0.2,0.4-0.5,0.4H150c-0.2,0-0.5-0.2-0.5-0.4V122z"/>
	<path class="st4" d="M157.8,135.5c-0.2,0-0.5-0.2-0.5-0.5v-13.1c0-0.2,0.2-0.4,0.5-0.4h5.7c0.3,0,0.5,0.2,0.5,0.4v1
		c0,0.3-0.2,0.5-0.5,0.5h-4.1v4h3.4c0.3,0,0.5,0.2,0.5,0.5v1c0,0.2-0.2,0.4-0.5,0.4h-3.4v4.2h4.2c0.3,0,0.5,0.2,0.5,0.4v1
		c0,0.3-0.2,0.5-0.5,0.5H157.8z"/>
	<path class="st4" d="M169.9,135.5h-1.4c-1.5,0-2.8-1.1-2.8-2.8V122c0-0.3,0.2-0.5,0.5-0.5h1.1c0.3,0,0.5,0.2,0.5,0.5v10.3
		c0,0.8,0.4,1.3,1.1,1.3h0.6c0.8,0,1.1-0.5,1.1-1.3V122c0-0.3,0.2-0.5,0.5-0.5h1.1c0.3,0,0.5,0.2,0.5,0.5v10.7
		C172.7,134.4,171.4,135.5,169.9,135.5z"/>
	<path class="st4" d="M176.8,135.1c0,0.3-0.2,0.5-0.5,0.5h-1.1c-0.2,0-0.5-0.2-0.5-0.5v-13.1c0-0.3,0.2-0.4,0.5-0.4h3.9
		c1.5,0,2.8,1.1,2.8,2.8v1.8c0,1.1-0.5,2-1.5,2.3c1.1,0.4,1.5,1.4,1.5,2.3v3.6c0,0.3,0.1,0.7,0.1,0.9c0,0.2-0.2,0.3-0.4,0.3h-0.9
		c-0.4,0-0.8-0.2-0.8-1v-3.8c0-0.8-0.5-1.3-1.3-1.3h-1.7C176.8,129.4,176.8,133.2,176.8,135.1z M178.6,127.5c0.8,0,1.2-0.5,1.2-1.3
		v-1.5c0-0.8-0.4-1.3-1.2-1.3h-1.8v4.1H178.6z"/>
	<path class="st4" d="M186.7,135.5c-1.7,0-3.1-0.9-3.1-2.8v-1.8c0-0.3,0.2-0.5,0.5-0.5h1.1c0.2,0,0.5,0.2,0.5,0.5v1.4
		c0,0.8,0.5,1.3,1.2,1.3h0.7c0.8,0,1.1-0.5,1.1-1.3v-0.8c0-1.1-0.6-1.5-1.2-1.9l-2.5-1.5c-0.8-0.5-1.3-1.2-1.3-2.5v-1.4
		c0-1.8,1.4-2.8,3.1-2.8h1c1.7,0,3.1,1,3.1,2.8v1.6c0,0.3-0.2,0.5-0.5,0.5h-1.1c-0.2,0-0.5-0.2-0.5-0.5v-1.2c0-0.8-0.4-1.3-1.2-1.3
		h-0.6c-0.8,0-1.1,0.5-1.1,1.3v0.6c0,0.7,0.2,1,0.9,1.4l2.3,1.4c1.2,0.7,1.8,1.5,1.8,2.9v1.8c0,1.7-1.2,2.8-2.8,2.8H186.7z"/>
	<path class="st4" d="M52,159.1c0,0.3-0.2,0.5-0.5,0.5h-1.1c-0.2,0-0.5-0.2-0.5-0.5v-13.1c0-0.3,0.2-0.4,0.5-0.4h3.5
		c1.5,0,2.8,1.1,2.8,2.8v2.9c0,1.7-1.2,2.8-2.8,2.8H52V159.1z M53.5,152.1c0.8,0,1.1-0.5,1.1-1.3v-2.1c0-0.8-0.4-1.3-1.1-1.3H52v4.6
		H53.5z"/>
	<path class="st4" d="M65.3,156.7c0,1.9-1.4,2.8-3,2.8h-1c-1.7,0-3-0.9-3-2.8v-8.4c0-1.9,1.4-2.8,3-2.8h1c1.7,0,3,0.9,3,2.8V156.7z
		 M63.3,148.7c0-0.8-0.5-1.3-1.2-1.3h-0.6c-0.7,0-1.2,0.5-1.2,1.3v7.6c0,0.8,0.5,1.3,1.2,1.3h0.6c0.7,0,1.2-0.5,1.2-1.3V148.7z"/>
	<path class="st4" d="M69.3,159.1c0,0.3-0.2,0.5-0.5,0.5h-1.1c-0.2,0-0.5-0.2-0.5-0.5v-13.1c0-0.3,0.2-0.4,0.5-0.4h3.9
		c1.5,0,2.8,1.1,2.8,2.8v1.8c0,1.1-0.5,2-1.5,2.3c1.1,0.4,1.5,1.4,1.5,2.3v3.6c0,0.3,0.1,0.7,0.1,0.9c0,0.2-0.2,0.3-0.4,0.3h-0.9
		c-0.4,0-0.8-0.2-0.8-1v-3.8c0-0.8-0.5-1.3-1.3-1.3h-1.7C69.3,153.4,69.3,157.2,69.3,159.1z M71.2,151.5c0.8,0,1.2-0.5,1.2-1.3v-1.5
		c0-0.8-0.4-1.3-1.2-1.3h-1.8v4.1H71.2z"/>
	<path class="st4" d="M82.5,147.4h-2.2v11.6c0,0.3-0.2,0.5-0.5,0.5h-1.1c-0.2,0-0.5-0.2-0.5-0.5v-11.6h-2.2c-0.2,0-0.5-0.2-0.5-0.5
		v-1c0-0.3,0.2-0.5,0.5-0.5h6.4c0.2,0,0.5,0.2,0.5,0.5v1C83,147.2,82.7,147.4,82.5,147.4z"/>
	<path class="st4" d="M87.8,155.9h-2.4l-0.4,3.2c0,0.3-0.2,0.4-0.5,0.4h-1.1c-0.2,0-0.4-0.2-0.4-0.4c0-0.1,0-0.3,0.1-0.5l1.9-12.7
		c0-0.3,0.2-0.5,0.5-0.5h2.6c0.3,0,0.4,0.1,0.5,0.5l1.9,12.7c0,0.3,0.1,0.4,0.1,0.5c0,0.2-0.2,0.4-0.4,0.4h-1.3
		c-0.3,0-0.4-0.2-0.5-0.4L87.8,155.9z M85.6,154h2l-0.9-6.8h-0.1L85.6,154z"/>
	<path class="st4" d="M93.9,159.1c0,0.3-0.2,0.5-0.5,0.5h-1.1c-0.3,0-0.5-0.2-0.5-0.5V146c0-0.3,0.2-0.5,0.5-0.5h1.1
		c0.3,0,0.5,0.2,0.5,0.5V159.1z"/>
	<path class="st4" d="M96,146c0-0.3,0.2-0.5,0.5-0.5h1.1c0.3,0,0.5,0.2,0.5,0.5v11.6h3.9c0.3,0,0.5,0.2,0.5,0.5v1
		c0,0.2-0.2,0.4-0.5,0.4h-5.5c-0.2,0-0.5-0.2-0.5-0.4V146z"/>
	<path class="st4" d="M106.6,159.5c-1.7,0-3.1-0.9-3.1-2.8v-1.8c0-0.3,0.2-0.5,0.5-0.5h1.1c0.2,0,0.5,0.2,0.5,0.5v1.4
		c0,0.8,0.5,1.3,1.2,1.3h0.7c0.8,0,1.1-0.5,1.1-1.3v-0.8c0-1.1-0.6-1.5-1.2-1.9l-2.5-1.5c-0.8-0.5-1.3-1.2-1.3-2.5v-1.4
		c0-1.8,1.4-2.8,3.1-2.8h1c1.7,0,3.1,1,3.1,2.8v1.6c0,0.3-0.2,0.5-0.5,0.5h-1.1c-0.2,0-0.5-0.2-0.5-0.5v-1.2c0-0.8-0.4-1.3-1.2-1.3
		h-0.6c-0.8,0-1.1,0.5-1.1,1.3v0.6c0,0.7,0.2,1,0.9,1.4l2.3,1.4c1.2,0.7,1.8,1.5,1.8,2.9v1.8c0,1.7-1.2,2.8-2.8,2.8H106.6z"/>
	<path class="st4" d="M116.4,159.5c-0.2,0-0.5-0.2-0.5-0.5v-13.1c0-0.3,0.2-0.4,0.5-0.4h3.9c1.5,0,2.8,1.1,2.8,2.8v8.4
		c0,1.7-1.2,2.8-2.8,2.8H116.4z M119.8,157.6c0.8,0,1.1-0.5,1.1-1.3v-7.6c0-0.8-0.4-1.3-1.1-1.3h-1.9v10.2H119.8z"/>
	<path class="st4" d="M125.5,159.5c-0.2,0-0.5-0.2-0.5-0.5v-13.1c0-0.2,0.2-0.4,0.5-0.4h5.7c0.3,0,0.5,0.2,0.5,0.4v1
		c0,0.3-0.2,0.5-0.5,0.5H127v4h3.4c0.3,0,0.5,0.2,0.5,0.5v1c0,0.2-0.2,0.4-0.5,0.4H127v4.2h4.2c0.3,0,0.5,0.2,0.5,0.4v1
		c0,0.3-0.2,0.5-0.5,0.5H125.5z"/>
	<path class="st4" d="M139.1,159.1c0,0.3-0.2,0.5-0.5,0.5h-1.1c-0.2,0-0.5-0.2-0.5-0.5v-13.1c0-0.3,0.2-0.4,0.5-0.4h3.9
		c1.5,0,2.8,1.1,2.8,2.8v1.8c0,1.1-0.5,2-1.5,2.3c1.1,0.4,1.5,1.4,1.5,2.3v3.6c0,0.3,0.1,0.7,0.1,0.9c0,0.2-0.2,0.3-0.4,0.3H143
		c-0.4,0-0.8-0.2-0.8-1v-3.8c0-0.8-0.5-1.3-1.3-1.3h-1.7C139.1,153.4,139.1,157.2,139.1,159.1z M141,151.5c0.8,0,1.2-0.5,1.2-1.3
		v-1.5c0-0.8-0.4-1.3-1.2-1.3h-1.8v4.1H141z"/>
	<path class="st4" d="M146.7,159.5c-0.2,0-0.5-0.2-0.5-0.5v-13.1c0-0.2,0.2-0.4,0.5-0.4h5.7c0.3,0,0.5,0.2,0.5,0.4v1
		c0,0.3-0.2,0.5-0.5,0.5h-4.1v4h3.4c0.3,0,0.5,0.2,0.5,0.5v1c0,0.2-0.2,0.4-0.5,0.4h-3.4v4.2h4.2c0.3,0,0.5,0.2,0.5,0.4v1
		c0,0.3-0.2,0.5-0.5,0.5H146.7z"/>
	<path class="st4" d="M159.4,148.7c0-0.8-0.5-1.3-1.2-1.3h-0.6c-0.7,0-1.2,0.5-1.2,1.3v7.6c0,0.8,0.5,1.3,1.2,1.3h0.6
		c0.7,0,1.2-0.5,1.2-1.3v-1.4c0-0.3,0.2-0.5,0.5-0.5h1.1c0.3,0,0.5,0.2,0.5,0.5v1.8c0,1.9-1.4,2.8-3.1,2.8h-1c-1.7,0-3-0.9-3-2.8
		v-8.4c0-1.9,1.4-2.8,3-2.8h1c1.7,0,3.1,0.9,3.1,2.8v1.6c0,0.3-0.2,0.5-0.5,0.5h-1.1c-0.2,0-0.5-0.2-0.5-0.5V148.7z"/>
	<path class="st4" d="M165.3,159.1c0,0.3-0.2,0.5-0.5,0.5h-1.1c-0.2,0-0.5-0.2-0.5-0.5v-13.1c0-0.3,0.2-0.4,0.5-0.4h3.9
		c1.5,0,2.8,1.1,2.8,2.8v1.8c0,1.1-0.5,2-1.5,2.3c1.1,0.4,1.5,1.4,1.5,2.3v3.6c0,0.3,0.1,0.7,0.1,0.9c0,0.2-0.2,0.3-0.4,0.3h-0.9
		c-0.4,0-0.8-0.2-0.8-1v-3.8c0-0.8-0.5-1.3-1.3-1.3h-1.7C165.3,153.4,165.3,157.2,165.3,159.1z M167.1,151.5c0.8,0,1.2-0.5,1.2-1.3
		v-1.5c0-0.8-0.4-1.3-1.2-1.3h-1.8v4.1H167.1z"/>
	<path class="st4" d="M176.6,159.5h-1.4c-1.5,0-2.8-1.1-2.8-2.8V146c0-0.3,0.2-0.5,0.5-0.5h1.1c0.3,0,0.5,0.2,0.5,0.5v10.3
		c0,0.8,0.4,1.3,1.1,1.3h0.6c0.8,0,1.1-0.5,1.1-1.3V146c0-0.3,0.2-0.5,0.5-0.5h1.1c0.3,0,0.5,0.2,0.5,0.5v10.7
		C179.4,158.4,178.1,159.5,176.6,159.5z"/>
	<path class="st4" d="M187.6,147.4h-2.2v11.6c0,0.3-0.2,0.5-0.5,0.5h-1.1c-0.2,0-0.5-0.2-0.5-0.5v-11.6h-2.2c-0.2,0-0.5-0.2-0.5-0.5
		v-1c0-0.3,0.2-0.5,0.5-0.5h6.4c0.2,0,0.5,0.2,0.5,0.5v1C188.1,147.2,187.8,147.4,187.6,147.4z"/>
	<path class="st4" d="M189.9,159.5c-0.2,0-0.5-0.2-0.5-0.5v-13.1c0-0.2,0.2-0.4,0.5-0.4h5.7c0.3,0,0.5,0.2,0.5,0.4v1
		c0,0.3-0.2,0.5-0.5,0.5h-4.1v4h3.4c0.3,0,0.5,0.2,0.5,0.5v1c0,0.2-0.2,0.4-0.5,0.4h-3.4v4.2h4.2c0.3,0,0.5,0.2,0.5,0.4v1
		c0,0.3-0.2,0.5-0.5,0.5H189.9z"/>
	<path class="st4" d="M201,153.8l-1.2-3.6v8.9c0,0.3-0.2,0.5-0.5,0.5h-1.1c-0.3,0-0.5-0.2-0.5-0.5v-13.1c0-0.2,0.2-0.4,0.5-0.4h1.4
		c0.3,0,0.5,0.2,0.5,0.4l1.7,5.5l1.7-5.5c0.1-0.2,0.2-0.4,0.5-0.4h1.4c0.2,0,0.5,0.2,0.5,0.4v13.1c0,0.3-0.2,0.5-0.5,0.5h-1.1
		c-0.3,0-0.5-0.2-0.5-0.5v-8.9l-1.2,3.6c-0.1,0.4-0.3,0.5-0.6,0.5h-0.6C201.3,154.2,201.1,154.1,201,153.8z"/>
	<path class="st4" d="M208.5,159.5c-0.2,0-0.5-0.2-0.5-0.5v-13.1c0-0.2,0.2-0.4,0.5-0.4h5.7c0.3,0,0.5,0.2,0.5,0.4v1
		c0,0.3-0.2,0.5-0.5,0.5h-4.1v4h3.4c0.3,0,0.5,0.2,0.5,0.5v1c0,0.2-0.2,0.4-0.5,0.4h-3.4v4.2h4.2c0.3,0,0.5,0.2,0.5,0.4v1
		c0,0.3-0.2,0.5-0.5,0.5H208.5z"/>
	<path class="st4" d="M221.4,154.6V146c0-0.2,0.2-0.5,0.5-0.5h1.1c0.3,0,0.5,0.2,0.5,0.5v13.1c0,0.3-0.2,0.5-0.5,0.5h-1.2
		c-0.3,0-0.5-0.1-0.6-0.4l-2.9-8.7v8.7c0,0.3-0.2,0.5-0.5,0.5h-1c-0.3,0-0.5-0.2-0.5-0.5V146c0-0.2,0.2-0.5,0.5-0.5h1.3
		c0.3,0,0.5,0.1,0.6,0.4L221.4,154.6z"/>
	<path class="st4" d="M231.7,147.4h-2.2v11.6c0,0.3-0.2,0.5-0.5,0.5h-1.1c-0.2,0-0.5-0.2-0.5-0.5v-11.6h-2.2c-0.2,0-0.5-0.2-0.5-0.5
		v-1c0-0.3,0.2-0.5,0.5-0.5h6.4c0.2,0,0.5,0.2,0.5,0.5v1C232.1,147.2,231.9,147.4,231.7,147.4z"/>
</g>
<g>
	<path d="M110.9,237.5v-4.6h4.6v4.6H110.9z"/>
	<path d="M124.1,227h2.6c1.8,0,3.2,1.4,3.2,3.2v2.4c0,0.7-0.2,1.4-0.6,1.8l-4.3,4.7c-0.6,0.6-0.7,0.9-0.7,1.4v0.2h5.2
		c0.3,0,0.6,0.2,0.6,0.5v1.9c0,0.3-0.2,0.6-0.6,0.6h-7.9c-0.3,0-0.6-0.2-0.6-0.6v-2.5c0-1.4,0.4-2.4,1.4-3.4l3.9-4.1
		c0.4-0.4,0.6-0.8,0.6-1.4v-0.8c0-0.7-0.4-1.1-1.1-1.1h-0.5c-0.7,0-1.1,0.4-1.1,1.1v1.3c0,0.3-0.3,0.6-0.6,0.6h-2.1
		c-0.3,0-0.6-0.2-0.6-0.6v-2.2C120.9,228.5,122.3,227,124.1,227z"/>
	<path d="M134.9,243.8c-1.8,0-3.2-1.4-3.2-3.2v-10.4c0-1.8,1.4-3.2,3.2-3.2h2.8c1.8,0,3.2,1.4,3.2,3.2v10.4c0,1.8-1.4,3.2-3.2,3.2
		H134.9z M136.7,240.8c0.7,0,1.1-0.4,1.1-1.1v-8.7c0-0.7-0.4-1.1-1.1-1.1H136c-0.7,0-1.1,0.4-1.1,1.1v8.7c0,0.7,0.4,1.1,1.1,1.1
		H136.7z"/>
	<path d="M145,231.9h-1.9c-0.3,0-0.6-0.2-0.6-0.5v-1.8c0-0.3,0.2-0.5,0.5-0.5h0.6c1.2,0,1.4-0.5,1.7-1.3c0.1-0.5,0.4-0.6,0.7-0.6
		h1.5c0.3,0,0.6,0.3,0.6,0.6v15.7c0,0.3-0.2,0.5-0.6,0.5h-2.1c-0.3,0-0.6-0.2-0.6-0.5V231.9z"/>
	<path d="M159.5,232.5c0,1.1-0.6,2.3-1.7,2.7c1.1,0.4,1.7,1.5,1.7,2.7v2.8c0,1.8-1.4,3.2-3.2,3.2h-2.8c-1.8,0-3.2-1.4-3.2-3.2v-2.8
		c0-1.1,0.6-2.3,1.7-2.7c-1.1-0.4-1.7-1.5-1.7-2.7v-2.3c0-1.8,1.4-3.2,3.2-3.2h2.8c1.8,0,3.2,1.4,3.2,3.2V232.5z M155.3,233.7
		c0.7,0,1.1-0.4,1.1-1.1v-1.5c0-0.7-0.4-1.1-1.1-1.1h-0.7c-0.7,0-1.1,0.4-1.1,1.1v1.5c0,0.7,0.4,1.1,1.1,1.1H155.3z M154.5,236.7
		c-0.7,0-1.1,0.4-1.1,1.1v2c0,0.7,0.4,1.1,1.1,1.1h0.7c0.7,0,1.1-0.4,1.1-1.1v-2c0-0.7-0.4-1.1-1.1-1.1H154.5z"/>
	<path d="M163.5,237.5v-4.6h4.6v4.6H163.5z"/>
</g>
<g>
	<path d="M108.8,204.7c-1.5,0-2.7-0.8-2.7-2.5v-1.6c0-0.2,0.2-0.4,0.4-0.4h1c0.2,0,0.4,0.2,0.4,0.4v1.3c0,0.7,0.4,1.2,1.1,1.2h0.6
		c0.7,0,1-0.5,1-1.2v-0.7c0-1-0.5-1.4-1.1-1.7l-2.2-1.3c-0.7-0.4-1.1-1.1-1.1-2.2v-1.3c0-1.7,1.2-2.5,2.7-2.5h0.9
		c1.6,0,2.7,0.9,2.7,2.6v1.4c0,0.2-0.2,0.4-0.4,0.4h-1c-0.2,0-0.4-0.2-0.4-0.4V195c0-0.7-0.4-1.2-1.1-1.2H109c-0.7,0-1,0.5-1,1.1
		v0.5c0,0.6,0.2,0.9,0.8,1.3l2.1,1.3c1,0.6,1.6,1.3,1.6,2.6v1.6c0,1.5-1.1,2.5-2.5,2.5H108.8z"/>
	<path d="M115.8,196.6c0.4-0.4,1-0.7,1.8-0.7h0.1c1.5,0,2.5,1,2.5,2.5v3.9c0,1.6-1.1,2.5-2.5,2.5h-0.2c-0.7,0-1.3-0.2-1.7-0.7v3.9
		c0,0.2-0.2,0.4-0.4,0.4h-1c-0.2,0-0.4-0.2-0.4-0.4v-11.7c0-0.2,0.2-0.4,0.4-0.4h1c0.2,0,0.4,0.2,0.4,0.4V196.6z M116.8,203.2h0.5
		c0.7,0,1-0.4,1-1.2v-3.5c0-0.7-0.4-1.1-1-1.1h-0.5c-0.7,0-1,0.4-1,1.1v3.5C115.8,202.7,116.1,203.2,116.8,203.2z"/>
	<path d="M125.9,201.9c0-0.2,0.2-0.4,0.4-0.4h1c0.2,0,0.4,0.2,0.4,0.4v0.3c0,1.7-1.2,2.5-2.7,2.5h-0.7c-1.5,0-2.7-0.8-2.7-2.5v-3.9
		c0-1.5,1.1-2.5,2.4-2.5h1.3c1.3,0,2.4,1,2.4,2.5v1.9c0,0.2-0.2,0.4-0.4,0.4h-3.9v1.4c0,0.7,0.4,1.1,1,1.1h0.5c0.7,0,1-0.4,1-1.1
		V201.9z M123.3,199.1h2.6v-0.6c0-0.7-0.4-1.1-1-1.1h-0.5c-0.7,0-1,0.4-1,1.1V199.1z M124.1,192.4c0.1-0.3,0.2-0.4,0.5-0.4h1.1
		c0.2,0,0.4,0.1,0.4,0.3c0,0.1,0,0.2-0.1,0.3l-0.9,1.8c-0.2,0.3-0.2,0.5-0.6,0.5H124c-0.3,0-0.4-0.1-0.4-0.3c0-0.1,0-0.2,0.1-0.4
		L124.1,192.4z"/>
	<path d="M135.1,202.2c0,1.7-1.1,2.5-2.6,2.5h-0.9c-1.5,0-2.6-0.9-2.6-2.5v-3.9c0-1.6,1.1-2.5,2.6-2.5h0.9c1.5,0,2.6,0.9,2.6,2.5
		v0.6c0,0.2-0.2,0.4-0.4,0.4h-1c-0.2,0-0.4-0.2-0.4-0.4v-0.5c0-0.7-0.4-1.1-1-1.1h-0.5c-0.7,0-1,0.4-1,1.1v3.5c0,0.7,0.4,1.1,1,1.1
		h0.5c0.7,0,1-0.4,1-1.1v-0.6c0-0.2,0.2-0.4,0.4-0.4h1c0.2,0,0.4,0.2,0.4,0.4V202.2z"/>
	<path d="M138.4,194.1c0,0.3-0.3,0.4-0.6,0.4h-0.8c-0.3,0-0.6-0.1-0.6-0.4v-1.4c0-0.3,0.3-0.4,0.6-0.4h0.8c0.3,0,0.6,0.1,0.6,0.4
		V194.1z M138.3,204.3c0,0.2-0.2,0.4-0.4,0.4h-1c-0.2,0-0.4-0.2-0.4-0.4v-8.1c0-0.2,0.2-0.4,0.4-0.4h1c0.2,0,0.4,0.2,0.4,0.4V204.3z
		"/>
	<path d="M145.9,204.3c0,0.2-0.2,0.4-0.4,0.4h-1c-0.2,0-0.4-0.2-0.4-0.4V204c-0.3,0.4-0.7,0.7-1.7,0.7H142c-1.3,0-2.3-0.9-2.3-2.4
		V202c0-1.5,0.8-2.4,2.4-2.4h2v-1.2c0-0.7-0.4-1.1-1-1.1h-0.3c-0.7,0-1.1,0.4-1.1,1.1v0.1c0,0.2-0.2,0.4-0.4,0.4h-0.9
		c-0.2,0-0.4-0.2-0.4-0.4v-0.3c0-1.6,1.2-2.5,2.6-2.5h0.7c1.5,0,2.6,0.9,2.6,2.5V204.3z M143.1,203.2c0.7,0,1-0.4,1-1.1v-1.1h-1.6
		c-0.7,0-1,0.3-1,0.9v0.3c0,0.6,0.2,1,1,1H143.1z"/>
	<path d="M149.4,204.3c0,0.2-0.2,0.4-0.4,0.4h-1c-0.2,0-0.4-0.2-0.4-0.4v-11.8c0-0.2,0.2-0.4,0.4-0.4h1c0.2,0,0.4,0.2,0.4,0.4V204.3
		z"/>
	<path d="M153,194.1c0,0.3-0.3,0.4-0.6,0.4h-0.8c-0.3,0-0.6-0.1-0.6-0.4v-1.4c0-0.3,0.3-0.4,0.6-0.4h0.8c0.3,0,0.6,0.1,0.6,0.4
		V194.1z M153,204.3c0,0.2-0.2,0.4-0.4,0.4h-1c-0.2,0-0.4-0.2-0.4-0.4v-8.1c0-0.2,0.2-0.4,0.4-0.4h1c0.2,0,0.4,0.2,0.4,0.4V204.3z"
		/>
	<path d="M156.2,200.8c-1.1-0.3-1.7-0.8-1.7-2.1v-0.6c0-1.4,0.9-2.3,2.3-2.3h1.5c1.3,0,2.2,0.8,2.2,2.3v0.4c0,0.2-0.2,0.4-0.4,0.4
		h-0.9c-0.2,0-0.4-0.1-0.4-0.4v-0.4c0-0.5-0.3-0.7-0.7-0.7H157c-0.5,0-0.7,0.3-0.7,0.7v0.4c0,0.3,0.1,0.5,0.5,0.6l2,0.5
		c1.1,0.3,1.9,0.9,1.9,2.1v0.6c0,1.4-0.9,2.3-2.3,2.3h-1.7c-1.4,0-2.2-0.7-2.2-2.3V202c0-0.2,0.2-0.4,0.4-0.4h1
		c0.2,0,0.4,0.2,0.4,0.4v0.3c0,0.6,0.3,0.8,0.8,0.8h1.1c0.5,0,0.7-0.3,0.7-0.7V202c0-0.3-0.1-0.5-0.5-0.6L156.2,200.8z"/>
	<path d="M166.2,201.9c0-0.2,0.2-0.4,0.4-0.4h1c0.2,0,0.4,0.2,0.4,0.4v0.3c0,1.7-1.2,2.5-2.7,2.5h-0.7c-1.5,0-2.7-0.8-2.7-2.5v-3.9
		c0-1.5,1.1-2.5,2.4-2.5h1.3c1.3,0,2.4,1,2.4,2.5v1.9c0,0.2-0.2,0.4-0.4,0.4h-3.9v1.4c0,0.7,0.4,1.1,1,1.1h0.5c0.7,0,1-0.4,1-1.1
		V201.9z M163.7,199.1h2.6v-0.6c0-0.7-0.4-1.1-1-1.1h-0.5c-0.7,0-1,0.4-1,1.1V199.1z M164.4,192.4c0.1-0.3,0.2-0.4,0.5-0.4h1.1
		c0.2,0,0.4,0.1,0.4,0.3c0,0.1,0,0.2-0.1,0.3l-0.9,1.8c-0.2,0.3-0.2,0.5-0.6,0.5h-0.5c-0.3,0-0.4-0.1-0.4-0.3c0-0.1,0-0.2,0.1-0.4
		L164.4,192.4z"/>
	<path d="M171.1,200.8c-1.1-0.3-1.7-0.8-1.7-2.1v-0.6c0-1.4,0.9-2.3,2.3-2.3h1.5c1.3,0,2.2,0.8,2.2,2.3v0.4c0,0.2-0.2,0.4-0.4,0.4
		H174c-0.2,0-0.4-0.1-0.4-0.4v-0.4c0-0.5-0.3-0.7-0.7-0.7h-1.1c-0.5,0-0.7,0.3-0.7,0.7v0.4c0,0.3,0.1,0.5,0.5,0.6l2,0.5
		c1.1,0.3,1.9,0.9,1.9,2.1v0.6c0,1.4-0.9,2.3-2.3,2.3h-1.7c-1.4,0-2.2-0.7-2.2-2.3V202c0-0.2,0.2-0.4,0.4-0.4h1
		c0.2,0,0.4,0.2,0.4,0.4v0.3c0,0.6,0.3,0.8,0.8,0.8h1.1c0.5,0,0.7-0.3,0.7-0.7V202c0-0.3-0.1-0.5-0.5-0.6L171.1,200.8z"/>
</g>
</svg>
