<?xml version="1.0" encoding="utf-8"?>
<!-- Generator: Adobe Illustrator 22.0.1, SVG Export Plug-In . SVG Version: 6.00 Build 0)  -->
<svg version="1.1" id="efc_x5F_G8SB_x5F_RGB" xmlns="http://www.w3.org/2000/svg" xmlns:xlink="http://www.w3.org/1999/xlink"
	 x="0px" y="0px" viewBox="0 0 289.1 289.1" style="enable-background:new 0 0 289.1 289.1;" xml:space="preserve">
<style type="text/css">
	.st0{fill:#43A7B7;}
	.st1{fill:#8CB61D;}
</style>
<rect x="139.5" y="32.6" class="st0" width="10.1" height="42.9"/>
<rect x="124.2" y="58.3" transform="matrix(0.9808 -0.1951 0.1951 0.9808 -10.705 26.5149)" class="st1" width="10.1" height="18.7"/>
<rect x="119.5" y="34.5" transform="matrix(0.9808 -0.1951 0.1951 0.9808 -6.1654 25.1368)" class="st1" width="10.1" height="18.7"/>
<rect x="114.2" y="5.3" transform="matrix(0.9808 -0.1951 0.1951 0.9808 -1.1075 23.6095)" class="st0" width="10.1" height="24.2"/>
<rect x="109.5" y="62.7" transform="matrix(0.9239 -0.3826 0.3826 0.9239 -18.8605 49.3136)" class="st1" width="10.1" height="18.7"/>
<rect x="100.2" y="40.4" transform="matrix(0.9239 -0.3826 0.3826 0.9239 -11.0099 44.0642)" class="st1" width="10.1" height="18.7"/>
<rect x="89.9" y="12.7" transform="matrix(0.9239 -0.3827 0.3827 0.9239 -2.2627 38.2295)" class="st1" width="10.1" height="24.2"/>
<rect x="95.9" y="70" transform="matrix(0.8315 -0.5555 0.5555 0.8315 -27.0511 69.4585)" class="st1" width="10.1" height="18.7"/>
<rect x="67.5" y="24.7" transform="matrix(0.8315 -0.5556 0.5556 0.8315 -8.208 46.5044)" class="st0" width="10.1" height="24.2"/>
<rect x="75.5" y="59.1" transform="matrix(0.7071 -0.7071 0.7071 0.7071 -33.3534 80.5218)" class="st0" width="10.1" height="42.9"/>
<rect x="47.9" y="40.8" transform="matrix(0.7071 -0.7071 0.7071 0.7071 -21.9123 52.9064)" class="st1" width="10.1" height="24.2"/>
<rect x="54.2" y="78.2" transform="matrix(0.5557 -0.8314 0.8314 0.5557 -46.4635 88.1081)" class="st1" width="10.1" height="18.7"/>
<rect x="31.7" y="60.4" transform="matrix(0.5555 -0.8315 0.8315 0.5555 -43.9731 62.8302)" class="st0" width="10.1" height="24.2"/>
<rect x="55.8" y="88.5" transform="matrix(0.3828 -0.9238 0.9238 0.3828 -63.9519 124.0898)" class="st0" width="10.1" height="42.9"/>
<rect x="19.8" y="82.9" transform="matrix(0.3826 -0.9239 0.9239 0.3826 -72.4189 81.5397)" class="st1" width="10.1" height="24.2"/>
<rect x="50.7" y="105.5" transform="matrix(0.1952 -0.9808 0.9808 0.1952 -79.5963 156.798)" class="st0" width="10.1" height="42.9"/>
<rect x="12.4" y="107.2" transform="matrix(0.195 -0.9808 0.9808 0.195 -102.9584 113.1108)" class="st0" width="10.1" height="24.2"/>
<rect x="56.8" y="139.5" class="st0" width="18.7" height="10.1"/>
<rect x="32.6" y="139.5" class="st0" width="18.7" height="10.1"/>
<rect x="58.3" y="154.8" transform="matrix(0.9808 -0.1951 0.1951 0.9808 -29.8892 16.2596)" class="st1" width="18.7" height="10.1"/>
<rect x="34.5" y="159.5" transform="matrix(0.9808 -0.1949 0.1949 0.9808 -31.2454 11.7103)" class="st1" width="18.7" height="10.1"/>
<rect x="5.3" y="164.8" transform="matrix(0.9808 -0.1952 0.1952 0.9808 -32.8148 6.667)" class="st0" width="24.2" height="10.1"/>
<rect x="40.4" y="178.8" transform="matrix(0.9239 -0.3825 0.3825 0.9239 -66.5506 33.0012)" class="st1" width="18.7" height="10.1"/>
<rect x="12.7" y="189.1" transform="matrix(0.9238 -0.3828 0.3828 0.9238 -72.4365 24.2815)" class="st1" width="24.2" height="10.1"/>
<rect x="49.9" y="196.6" transform="matrix(0.8316 -0.5554 0.5554 0.8316 -102.0084 66.8416)" class="st1" width="18.7" height="10.1"/>
<rect x="24.7" y="211.5" transform="matrix(0.8314 -0.5557 0.5557 0.8314 -114.1568 56.9603)" class="st0" width="24.2" height="10.1"/>
<rect x="62.6" y="212.1" transform="matrix(0.7073 -0.707 0.707 0.7073 -132.4584 114.453)" class="st0" width="18.7" height="10.1"/>
<rect x="91.6" y="204.8" transform="matrix(0.5555 -0.8315 0.8315 0.5555 -129.5819 177.225)" class="st0" width="18.7" height="10.1"/>
<rect x="78.2" y="224.9" transform="matrix(0.5557 -0.8314 0.8314 0.5557 -152.2726 174.918)" class="st1" width="18.7" height="10.1"/>
<rect x="60.4" y="247.3" transform="matrix(0.5555 -0.8315 0.8315 0.5555 -177.5915 172.5008)" class="st1" width="24.2" height="10.1"/>
<rect x="82.9" y="259.3" transform="matrix(0.3826 -0.9239 0.9239 0.3826 -185.595 250.9405)" class="st0" width="24.2" height="10.1"/>
<rect x="105.5" y="228.4" transform="matrix(0.195 -0.9808 0.9808 0.195 -126.7637 312.3486)" class="st0" width="42.9" height="10.1"/>
<rect x="107.2" y="266.7" transform="matrix(0.195 -0.9808 0.9808 0.195 -170.4768 335.7173)" class="st1" width="24.2" height="10.1"/>
<rect x="139.5" y="213.7" class="st0" width="10.1" height="42.9"/>
<rect x="139.5" y="262.1" class="st1" width="10.1" height="24.2"/>
<rect x="154.8" y="212.2" transform="matrix(0.9808 -0.1953 0.1953 0.9808 -40.1785 35.4811)" class="st1" width="10.1" height="18.7"/>
<rect x="164.8" y="259.6" transform="matrix(0.9808 -0.1952 0.1952 0.9808 -49.7622 38.3747)" class="st0" width="10.1" height="24.2"/>
<rect x="169.5" y="207.7" transform="matrix(0.9238 -0.3829 0.3829 0.9238 -69.8016 83.3827)" class="st0" width="10.1" height="18.7"/>
<rect x="189.1" y="252.2" transform="matrix(0.9238 -0.3828 0.3828 0.9238 -86.3928 94.4564)" class="st1" width="10.1" height="24.2"/>
<rect x="183.1" y="200.5" transform="matrix(0.8313 -0.5558 0.5558 0.8313 -84.872 139.9623)" class="st1" width="10.1" height="18.7"/>
<rect x="211.5" y="240.3" transform="matrix(0.8314 -0.5557 0.5557 0.8314 -103.7146 162.9106)" class="st0" width="10.1" height="24.2"/>
<rect x="195" y="190.7" transform="matrix(0.707 -0.7072 0.7072 0.707 -82.8665 200.1095)" class="st0" width="10.1" height="18.7"/>
<rect x="231.2" y="224.1" transform="matrix(0.7071 -0.7072 0.7072 0.7071 -97.8526 236.2551)" class="st1" width="10.1" height="24.2"/>
<rect x="247.3" y="204.5" transform="matrix(0.5556 -0.8315 0.8315 0.5556 -67.9358 306.0803)" class="st0" width="10.1" height="24.2"/>
<rect x="223.2" y="157.8" transform="matrix(0.3825 -0.924 0.924 0.3825 -24.6598 321.5602)" class="st0" width="10.1" height="42.9"/>
<rect x="259.3" y="182.1" transform="matrix(0.3826 -0.9239 0.9239 0.3826 -16.2131 364.0936)" class="st1" width="10.1" height="24.2"/>
<rect x="216.5" y="150.5" transform="matrix(0.1949 -0.9808 0.9808 0.1949 21.5479 346.0051)" class="st1" width="10.1" height="18.7"/>
<rect x="240.2" y="155.3" transform="matrix(0.1955 -0.9807 0.9807 0.1955 35.8996 372.9598)" class="st1" width="10.1" height="18.7"/>
<rect x="266.7" y="157.8" transform="matrix(0.195 -0.9808 0.9808 0.195 52.127 403.2312)" class="st0" width="10.1" height="24.2"/>
<rect x="213.7" y="139.5" class="st0" width="18.7" height="10.1"/>
<rect x="237.9" y="139.5" class="st0" width="18.7" height="10.1"/>
<rect x="212.2" y="124.2" transform="matrix(0.9807 -0.1953 0.1953 0.9807 -20.9769 45.7492)" class="st1" width="18.7" height="10.1"/>
<rect x="235.9" y="119.5" transform="matrix(0.9809 -0.1947 0.1947 0.9809 -19.5534 50.1332)" class="st1" width="18.7" height="10.1"/>
<rect x="259.6" y="114.2" transform="matrix(0.9808 -0.1952 0.1952 0.9808 -18.0572 55.3353)" class="st0" width="24.2" height="10.1"/>
<rect x="230.1" y="100.2" transform="matrix(0.924 -0.3823 0.3823 0.924 -22.0616 99.5284)" class="st1" width="18.7" height="10.1"/>
<rect x="252.2" y="89.9" transform="matrix(0.9238 -0.3829 0.3829 0.9238 -16.2163 108.4358)" class="st1" width="24.2" height="10.1"/>
<rect x="195.9" y="80.9" transform="matrix(0.8313 -0.5558 0.5558 0.8313 -8.6213 143.5788)" class="st0" width="72.6" height="10.1"/>
<rect x="182.8" y="65" transform="matrix(0.707 -0.7073 0.7073 0.707 14.6922 175.4908)" class="st0" width="72.6" height="10.1"/>
<rect x="178.8" y="74.3" transform="matrix(0.5554 -0.8316 0.8316 0.5554 17.6971 191.7447)" class="st1" width="18.7" height="10.1"/>
<rect x="192.3" y="54.2" transform="matrix(0.5559 -0.8312 0.8312 0.5559 40.3186 193.8752)" class="st1" width="18.7" height="10.1"/>
<rect x="204.5" y="31.7" transform="matrix(0.5554 -0.8316 0.8316 0.5554 65.6996 196.4577)" class="st1" width="24.2" height="10.1"/>
<polygon class="st0" points="175.7,82.6 166.4,78.8 182.8,39.2 192.1,43 "/>
<rect x="182.1" y="19.8" transform="matrix(0.3825 -0.9239 0.9239 0.3825 96.9798 194.7224)" class="st0" width="24.2" height="10.1"/>
<polygon class="st0" points="163,77.7 153.1,75.8 161.5,33.7 171.4,35.7 "/>
<rect x="157.8" y="12.4" transform="matrix(0.1949 -0.9808 0.9808 0.1949 119.6634 180.6317)" class="st1" width="24.2" height="10.1"/>
</svg>
